<svg aria-hidden="true" style="position: absolute; width: 0; height: 0; overflow: hidden;" version="1.1" xmlns="http://www.w3.org/2000/svg" xmlns:xlink="http://www.w3.org/1999/xlink">
<defs>
<symbol id="icon-magnifying-glass" viewBox="0 0 20 20">
<path d="M17.545 15.467l-3.779-3.779c0.57-0.935 0.898-2.035 0.898-3.21 0-3.417-2.961-6.377-6.378-6.377s-6.186 2.769-6.186 6.186c0 3.416 2.961 6.377 6.377 6.377 1.137 0 2.2-0.309 3.115-0.844l3.799 3.801c0.372 0.371 0.975 0.371 1.346 0l0.943-0.943c0.371-0.371 0.236-0.84-0.135-1.211zM4.004 8.287c0-2.366 1.917-4.283 4.282-4.283s4.474 2.107 4.474 4.474c0 2.365-1.918 4.283-4.283 4.283s-4.473-2.109-4.473-4.474z"></path>
</symbol>
<symbol id="icon-pencil" viewBox="0 0 32 32">
<path d="M27 0c2.761 0 5 2.239 5 5 0 1.126-0.372 2.164-1 3l-2 2-7-7 2-2c0.836-0.628 1.874-1 3-1zM2 23l-2 9 9-2 18.5-18.5-7-7-18.5 18.5zM22.362 11.362l-14 14-1.724-1.724 14-14 1.724 1.724z"></path>
</symbol>
<symbol id="icon-folder-open" viewBox="0 0 32 32">
<path d="M26 30l6-16h-26l-6 16zM4 12l-4 18v-26h9l4 4h13v4z"></path>
</symbol>
<symbol id="icon-bin2" viewBox="0 0 32 32">
<path d="M6 32h20l2-22h-24zM20 4v-4h-8v4h-10v6l2-2h24l2 2v-6h-10zM18 4h-4v-2h4v2z"></path>
</symbol>
</defs>
</svg>
